<?xml version="1.0" encoding="UTF-8" standalone="no"?>
<!-- Created with Inkscape (http://www.inkscape.org/) -->

<svg
   xmlns:dc="http://purl.org/dc/elements/1.1/"
   xmlns:cc="http://creativecommons.org/ns#"
   xmlns:rdf="http://www.w3.org/1999/02/22-rdf-syntax-ns#"
   xmlns:svg="http://www.w3.org/2000/svg"
   xmlns="http://www.w3.org/2000/svg"
   xmlns:sodipodi="http://sodipodi.sourceforge.net/DTD/sodipodi-0.dtd"
   xmlns:inkscape="http://www.inkscape.org/namespaces/inkscape"
   version="1.1"
   id="svg2"
   xml:space="preserve"
   width="488.26132"
   height="518.25732"
   viewBox="0 0 488.26132 518.25732"
   sodipodi:docname="ledgacy_logo.svg"
   inkscape:version="0.92.2 2405546, 2018-03-11"><metadata
     id="metadata8"><rdf:RDF><cc:Work
         rdf:about=""><dc:format>image/svg+xml</dc:format><dc:type
           rdf:resource="http://purl.org/dc/dcmitype/StillImage" /><dc:title /></cc:Work></rdf:RDF></metadata><defs
     id="defs6"><clipPath
       clipPathUnits="userSpaceOnUse"
       id="clipPath18"><path
         d="M 0,388.693 H 366.196 V 0 H 0 Z"
         id="path16"
         inkscape:connector-curvature="0" /></clipPath></defs><sodipodi:namedview
     pagecolor="#ffffff"
     bordercolor="#666666"
     borderopacity="1"
     objecttolerance="10"
     gridtolerance="10"
     guidetolerance="10"
     inkscape:pageopacity="0"
     inkscape:pageshadow="2"
     inkscape:window-width="1920"
     inkscape:window-height="1026"
     id="namedview4"
     showgrid="false"
     inkscape:zoom="0.45537224"
     inkscape:cx="-137.97432"
     inkscape:cy="259.12866"
     inkscape:window-x="1440"
     inkscape:window-y="0"
     inkscape:window-maximized="1"
     inkscape:current-layer="g10" /><g
     id="g10"
     inkscape:groupmode="layer"
     inkscape:label="ledgacy"
     transform="matrix(1.3333333,0,0,-1.3333333,0,518.25733)"><g
       id="g12"
       style="fill:#ffffff"><g
         id="g14"
         clip-path="url(#clipPath18)"
         style="fill:#ffffff"><g
           id="g20"
           transform="translate(309.9004,226.8105)"
           style="fill:#ffffff"><path
             d="m 0,0 c 0,-2.529 -2.019,-4.587 -4.5,-4.587 h -5.151 -15 -9.651 -20.349 c -2.481,0 -4.5,2.058 -4.5,4.587 v 21.404 c 0,2.531 2.019,4.587 4.5,4.587 h 20.349 9.651 15 5.151 c 2.481,0 4.5,-2.056 4.5,-4.587 z m -45.551,116.988 h -82.978 l 0.839,0.173 h -0.839 l 61.881,12.652 0.384,0.089 c 0.095,0.024 9.553,2.287 15.396,-2.131 2.792,-2.112 4.571,-5.672 5.317,-10.61 h -0.031 c 0.009,-0.059 0.022,-0.113 0.031,-0.173 M -4.5,41.281 H -9.651 V 97.37 c 0,10.817 -8.748,19.618 -19.5,19.618 h -1.287 c -1.037,10.113 -4.85,17.741 -11.381,22.71 -11.189,8.517 -25.973,5.271 -28,4.772 l -133.84,-27.533 c -10.282,-0.533 -18.492,-9.092 -18.492,-19.567 V 63.548 c 1.22,0.419 2.437,0.845 3.657,1.263 1.48,0.506 3.435,0.476 4.922,-0.034 2.142,-0.735 4.28,-1.482 6.421,-2.219 V 97.37 c 0,1.793 1.05,3.332 2.556,4.065 l 0.018,-0.089 2.685,0.551 h 172.741 c 2.482,0 4.5,-2.031 4.5,-4.527 V 41.281 h -9.651 -20.349 c -10.752,0 -19.5,-8.917 -19.5,-19.877 V 0 c 0,-10.959 8.748,-19.876 19.5,-19.876 h 20.349 9.651 v -55.963 c 0,-2.481 -2.018,-4.5 -4.5,-4.5 h -129.947 c -4.179,-5.436 -8.716,-10.432 -13.598,-15 h 143.545 c 10.752,0 19.5,8.748 19.5,19.5 v 55.963 H -4.5 C 6.252,-19.876 15,-10.959 15,0 v 21.404 c 0,10.96 -8.748,19.877 -19.5,19.877"
             style="fill:#ffffff;fill-opacity:1;fill-rule:nonzero;stroke:none"
             id="path22"
             inkscape:connector-curvature="0" /></g><g
           id="g24"
           transform="translate(42.3188,219.4238)"
           style="fill:#ffffff"><path
             d="m 0,0 c 0,-7.914 -0.007,-15.828 0.002,-23.742 0.009,-7.646 1.66,-14.945 5.162,-21.724 9.959,-19.281 25.709,-32.42 44.911,-41.772 0.897,-0.437 2.433,-0.199 3.411,0.269 13.776,6.581 25.598,15.71 35.282,27.536 8.731,10.662 14.247,22.586 14.213,36.675 -0.038,16.407 -0.043,32.815 0.037,49.222 0.009,1.944 -0.505,2.86 -2.424,3.51 C 84.918,35.277 69.295,40.737 53.617,46.031 52.289,46.479 50.541,46.441 49.204,45.99 33.526,40.693 17.903,35.238 2.228,29.938 0.399,29.32 -0.058,28.44 -0.04,26.638 0.047,17.759 0,8.88 0,0 m 118.268,3.605 c 0,-10.323 0.178,-20.65 -0.045,-30.969 -0.278,-12.822 -4.951,-24.248 -12.079,-34.707 -13.088,-19.202 -30.817,-32.704 -52.064,-41.735 -1.411,-0.599 -3.495,-0.728 -4.868,-0.142 -23.321,9.946 -42.458,24.934 -55.587,46.949 -6.099,10.227 -9.201,21.359 -9.228,33.283 -0.045,20.462 0.023,40.924 -0.07,61.386 -0.009,2.039 0.694,2.841 2.5,3.459 20.845,7.137 41.659,14.368 62.517,21.47 1.32,0.45 3.064,0.423 4.39,-0.029 20.764,-7.082 41.481,-14.296 62.24,-21.389 1.972,-0.675 2.642,-1.601 2.622,-3.697 -0.107,-11.292 -0.05,-22.585 -0.05,-33.878 -0.093,0 -0.186,0 -0.278,-10e-4"
             style="fill:#ffffff;fill-opacity:1;fill-rule:nonzero;stroke:none"
             id="path26"
             inkscape:connector-curvature="0" /></g><g
           id="g28"
           transform="translate(118.0444,229.3779)"
           style="fill:#ffffff"><path
             d="m 0,0 c 4.092,-4.092 7.62,-7.62 10.924,-10.925 -14.653,-14.653 -29.412,-29.41 -43.975,-43.972 -8.642,8.501 -17.618,17.329 -26.508,26.073 3.528,3.47 7.128,7.012 10.492,10.322 5.011,-4.911 10.278,-10.072 15.452,-15.143 C -22.199,-22.219 -11.119,-11.129 0,0"
             style="fill:#ffffff;fill-opacity:1;fill-rule:nonzero;stroke:none"
             id="path30"
             inkscape:connector-curvature="0" /></g><g
           id="g32"
           transform="translate(22.1548,95.9199)"
           style="fill:#ffffff"><path
             d="m 0,0 h 11.408 v -47.848 c 0,-1.646 0.397,-2.923 1.193,-3.83 0.794,-0.908 1.928,-1.363 3.405,-1.363 0.681,0 1.432,0.113 2.256,0.342 0.822,0.226 1.603,0.51 2.342,0.851 l 1.532,-8.685 c -1.532,-0.738 -3.321,-1.305 -5.365,-1.701 -2.042,-0.397 -3.887,-0.596 -5.533,-0.596 -3.576,0 -6.342,0.949 -8.3,2.851 C 0.979,-58.078 0,-55.369 0,-51.848 Z"
             style="fill:#ffffff;fill-opacity:1;fill-rule:nonzero;stroke:none"
             id="path34"
             inkscape:connector-curvature="0" /></g><g
           id="g36"
           transform="translate(81.4946,59.8222)"
           style="fill:#ffffff"><path
             d="m 0,0 c -0.285,3.348 -1.52,6.029 -3.704,8.045 -2.186,2.014 -4.84,3.023 -7.96,3.023 -1.532,0 -2.967,-0.271 -4.3,-0.808 -1.334,-0.541 -2.512,-1.293 -3.533,-2.258 -1.022,-0.965 -1.859,-2.127 -2.512,-3.49 C -22.662,3.15 -23.045,1.645 -23.158,0 Z m -11.579,-26.904 c -3.576,0 -6.812,0.611 -9.706,1.832 -2.895,1.218 -5.363,2.879 -7.406,4.98 -2.044,2.098 -3.62,4.539 -4.726,7.321 -1.106,2.781 -1.66,5.705 -1.66,8.769 0,3.178 0.539,6.172 1.617,8.982 1.078,2.809 2.64,5.28 4.683,7.407 2.044,2.129 4.526,3.816 7.45,5.066 2.923,1.248 6.2,1.873 9.833,1.873 3.632,0 6.882,-0.625 9.748,-1.873 2.865,-1.25 5.307,-2.924 7.322,-5.023 2.014,-2.1 3.546,-4.541 4.598,-7.323 1.049,-2.781 1.574,-5.675 1.574,-8.683 0,-0.738 -0.015,-1.447 -0.042,-2.129 -0.029,-0.68 -0.1,-1.248 -0.213,-1.701 h -34.48 c 0.17,-1.762 0.595,-3.321 1.276,-4.684 0.682,-1.361 1.561,-2.525 2.64,-3.49 1.077,-0.967 2.299,-1.703 3.661,-2.213 1.362,-0.512 2.78,-0.768 4.257,-0.768 2.269,0 4.412,0.555 6.427,1.661 2.014,1.107 3.391,2.568 4.129,4.384 l 9.791,-2.724 c -1.646,-3.405 -4.271,-6.201 -7.875,-8.385 -3.605,-2.186 -7.904,-3.279 -12.898,-3.279"
             style="fill:#ffffff;fill-opacity:1;fill-rule:nonzero;stroke:none"
             id="path38"
             inkscape:connector-curvature="0" /></g><g
           id="g40"
           transform="translate(121.6792,42.625)"
           style="fill:#ffffff"><path
             d="m 0,0 c 1.077,0 2.184,0.184 3.32,0.553 1.135,0.369 2.184,0.894 3.15,1.574 0.965,0.682 1.831,1.477 2.596,2.385 0.767,0.906 1.348,1.9 1.746,2.98 v 10.641 c -0.455,1.248 -1.093,2.398 -1.916,3.449 -0.823,1.049 -1.759,1.957 -2.809,2.725 -1.051,0.765 -2.157,1.375 -3.32,1.83 -1.164,0.453 -2.314,0.681 -3.449,0.681 -1.702,0 -3.277,-0.371 -4.724,-1.107 -1.448,-0.738 -2.683,-1.746 -3.704,-3.024 -1.022,-1.275 -1.818,-2.738 -2.384,-4.382 -0.568,-1.649 -0.852,-3.35 -0.852,-5.11 0,-1.873 0.312,-3.605 0.937,-5.193 0.624,-1.59 1.475,-2.981 2.555,-4.172 C -7.777,2.639 -6.485,1.701 -4.981,1.021 -3.478,0.34 -1.817,0 0,0 m -2.98,-9.707 c -3.065,0 -5.904,0.596 -8.514,1.789 -2.611,1.191 -4.853,2.838 -6.726,4.938 -1.873,2.099 -3.335,4.554 -4.384,7.365 -1.051,2.808 -1.576,5.83 -1.576,9.066 0,3.235 0.496,6.242 1.491,9.026 0.992,2.779 2.369,5.22 4.128,7.32 1.759,2.099 3.86,3.746 6.301,4.939 2.44,1.192 5.108,1.787 8.003,1.787 3.291,0 6.257,-0.794 8.897,-2.384 2.639,-1.59 4.695,-3.66 6.172,-6.215 V 53.295 H 22.221 V 4.256 c 0,-1.192 0.198,-2.043 0.595,-2.555 0.397,-0.51 1.078,-0.795 2.043,-0.849 v -9.707 c -1.987,-0.397 -3.604,-0.596 -4.852,-0.596 -2.043,0 -3.718,0.512 -5.024,1.533 -1.305,1.022 -2.043,2.354 -2.213,4 l -0.255,2.811 C 10.868,-3.945 8.641,-6.088 5.831,-7.535 3.021,-8.982 0.085,-9.707 -2.98,-9.707"
             style="fill:#ffffff;fill-opacity:1;fill-rule:nonzero;stroke:none"
             id="path42"
             inkscape:connector-curvature="0" /></g><g
           id="g44"
           transform="translate(176.4214,42.625)"
           style="fill:#ffffff"><path
             d="m 0,0 c 1.248,0 2.439,0.197 3.576,0.596 1.135,0.396 2.185,0.935 3.15,1.617 0.964,0.682 1.816,1.475 2.554,2.385 0.738,0.906 1.305,1.873 1.703,2.894 v 10.641 c -1.022,2.611 -2.626,4.711 -4.81,6.301 -2.186,1.587 -4.47,2.384 -6.854,2.384 -1.759,0 -3.349,-0.384 -4.767,-1.15 -1.42,-0.766 -2.64,-1.787 -3.661,-3.064 -1.022,-1.278 -1.803,-2.739 -2.342,-4.385 -0.54,-1.647 -0.809,-3.35 -0.809,-5.108 0,-1.818 0.312,-3.521 0.937,-5.109 0.624,-1.59 1.49,-2.981 2.596,-4.172 C -7.619,2.639 -6.329,1.701 -4.853,1.021 -3.377,0.34 -1.76,0 0,0 m -3.831,-9.111 c -3.009,0 -5.733,0.597 -8.173,1.789 -2.441,1.191 -4.555,2.822 -6.343,4.894 -1.788,2.073 -3.165,4.471 -4.13,7.196 -0.964,2.724 -1.447,5.619 -1.447,8.683 0,3.235 0.512,6.242 1.533,9.026 1.022,2.779 2.44,5.22 4.257,7.32 1.816,2.099 4.001,3.746 6.556,4.939 2.554,1.192 5.363,1.787 8.429,1.787 3.461,0 6.498,-0.781 9.109,-2.341 2.609,-1.561 4.768,-3.647 6.471,-6.258 v 7.834 h 9.961 V -6.727 c 0,-3.291 -0.625,-6.242 -1.873,-8.853 -1.249,-2.611 -2.967,-4.824 -5.152,-6.641 -2.185,-1.816 -4.797,-3.207 -7.832,-4.172 -3.037,-0.964 -6.343,-1.447 -9.919,-1.447 -4.882,0 -8.981,0.809 -12.302,2.426 -3.321,1.617 -6.172,3.902 -8.556,6.853 l 6.215,6.045 c 1.703,-2.099 3.844,-3.746 6.427,-4.937 2.582,-1.193 5.322,-1.789 8.216,-1.789 1.759,0 3.448,0.242 5.066,0.724 1.618,0.483 3.05,1.235 4.299,2.256 1.248,1.022 2.227,2.328 2.938,3.916 0.709,1.59 1.064,3.463 1.064,5.619 v 5.62 C 9.506,-3.662 7.436,-5.635 4.768,-7.025 2.1,-8.416 -0.766,-9.111 -3.831,-9.111"
             style="fill:#ffffff;fill-opacity:1;fill-rule:nonzero;stroke:none"
             id="path46"
             inkscape:connector-curvature="0" /></g><g
           id="g48"
           transform="translate(224.5229,41.2617)"
           style="fill:#ffffff"><path
             d="m 0,0 c 1.929,0 3.759,0.342 5.491,1.021 1.731,0.682 3.078,1.59 4.044,2.725 1.248,0.965 1.873,2.043 1.873,3.236 v 5.108 c -1.362,0.512 -2.839,0.922 -4.427,1.234 -1.589,0.311 -3.123,0.469 -4.597,0.469 -2.952,0 -5.364,-0.668 -7.238,-2.002 -1.873,-1.334 -2.809,-3.021 -2.809,-5.064 0,-1.93 0.737,-3.534 2.214,-4.811 C -3.974,0.639 -2.158,0 0,0 m -3.235,-8.344 c -2.159,0 -4.172,0.356 -6.045,1.065 -1.873,0.709 -3.491,1.703 -4.853,2.98 -1.362,1.278 -2.427,2.768 -3.193,4.469 -0.766,1.703 -1.149,3.576 -1.149,5.619 0,2.1 0.468,4.045 1.405,5.832 0.936,1.789 2.241,3.307 3.916,4.555 1.674,1.248 3.675,2.228 6.003,2.937 2.326,0.709 4.88,1.065 7.662,1.065 1.986,0 3.929,-0.17 5.832,-0.51 1.9,-0.342 3.589,-0.824 5.065,-1.447 v 2.552 c 0,2.952 -0.838,5.223 -2.512,6.811 -1.674,1.59 -4.158,2.385 -7.449,2.385 -2.384,0 -4.712,-0.426 -6.981,-1.278 -2.271,-0.851 -4.598,-2.099 -6.982,-3.746 l -3.49,7.237 c 5.732,3.802 11.919,5.705 18.56,5.705 6.413,0 11.393,-1.576 14.941,-4.725 3.547,-3.15 5.321,-7.705 5.321,-13.666 V 5.619 c 0,-1.191 0.213,-2.043 0.639,-2.555 0.426,-0.509 1.12,-0.794 2.086,-0.849 v -9.707 c -1.931,-0.397 -3.605,-0.596 -5.023,-0.596 -2.158,0 -3.818,0.483 -4.981,1.447 -1.164,0.965 -1.888,2.243 -2.171,3.832 L 13.111,-0.34 C 11.123,-2.951 8.712,-4.937 5.874,-6.299 3.035,-7.662 0,-8.344 -3.235,-8.344"
             style="fill:#ffffff;fill-opacity:1;fill-rule:nonzero;stroke:none"
             id="path50"
             inkscape:connector-curvature="0" /></g><g
           id="g52"
           transform="translate(255.1714,56.0761)"
           style="fill:#ffffff"><path
             d="m 0,0 c 0,3.121 0.539,6.072 1.617,8.854 1.078,2.781 2.64,5.222 4.683,7.322 2.044,2.099 4.513,3.773 7.407,5.023 2.895,1.248 6.158,1.873 9.791,1.873 4.881,0 9.038,-1.051 12.473,-3.15 3.433,-2.1 6.002,-4.854 7.705,-8.258 L 32.522,8.258 c -0.965,1.646 -2.243,2.908 -3.831,3.789 -1.589,0.879 -3.349,1.32 -5.278,1.32 -1.647,0 -3.18,-0.328 -4.598,-0.98 C 17.396,11.734 16.161,10.826 15.112,9.662 14.062,8.498 13.239,7.094 12.643,5.449 12.047,3.803 11.749,1.986 11.749,0 c 0,-1.988 0.312,-3.803 0.937,-5.449 0.624,-1.647 1.46,-3.065 2.511,-4.256 1.05,-1.193 2.284,-2.115 3.703,-2.768 1.418,-0.652 2.923,-0.978 4.513,-0.978 2.043,0 3.93,0.51 5.661,1.531 1.732,1.022 2.938,2.27 3.618,3.746 l 11.154,-3.404 c -1.533,-3.406 -4.059,-6.188 -7.577,-8.344 -3.52,-2.158 -7.748,-3.236 -12.686,-3.236 -3.633,0 -6.896,0.625 -9.791,1.873 -2.895,1.248 -5.363,2.937 -7.406,5.066 C 4.342,-14.09 2.767,-11.621 1.66,-8.813 0.554,-6.002 0,-3.064 0,0"
             style="fill:#ffffff;fill-opacity:1;fill-rule:nonzero;stroke:none"
             id="path54"
             inkscape:connector-curvature="0" /></g><g
           id="g56"
           transform="translate(306.3394,25.0859)"
           style="fill:#ffffff"><path
             d="m 0,0 c 0.965,-0.283 1.901,-0.496 2.81,-0.639 0.907,-0.14 1.673,-0.213 2.298,-0.213 0.738,0 1.418,0.143 2.043,0.426 0.624,0.285 1.193,0.781 1.703,1.49 0.511,0.711 1.022,1.69 1.533,2.938 0.51,1.248 1.05,2.809 1.617,4.682 L -5.619,53.297 H 6.13 L 18.22,18.561 28.946,53.297 H 39.674 L 20.943,-0.17 c -1.078,-3.121 -2.923,-5.676 -5.533,-7.662 -2.611,-1.986 -5.847,-2.981 -9.706,-2.981 -0.908,0 -1.83,0.073 -2.766,0.213 -0.937,0.143 -1.917,0.383 -2.938,0.725 z"
             style="fill:#ffffff;fill-opacity:1;fill-rule:nonzero;stroke:none"
             id="path58"
             inkscape:connector-curvature="0" /></g></g></g></g></svg>