<?xml version="1.0" encoding="UTF-8" standalone="no"?>
<!-- Created with Inkscape (http://www.inkscape.org/) -->

<svg
   xmlns:dc="http://purl.org/dc/elements/1.1/"
   xmlns:cc="http://creativecommons.org/ns#"
   xmlns:rdf="http://www.w3.org/1999/02/22-rdf-syntax-ns#"
   xmlns:svg="http://www.w3.org/2000/svg"
   xmlns="http://www.w3.org/2000/svg"
   xmlns:sodipodi="http://sodipodi.sourceforge.net/DTD/sodipodi-0.dtd"
   xmlns:inkscape="http://www.inkscape.org/namespaces/inkscape"
   version="1.1"
   id="svg2"
   xml:space="preserve"
   width="1517.6667"
   height="384.61066"
   viewBox="0 0 1517.6667 384.61066"
   sodipodi:docname="ledgacy_logo_horizontal.svg"
   inkscape:version="0.92.2 2405546, 2018-03-11"><metadata
     id="metadata8"><rdf:RDF><cc:Work
         rdf:about=""><dc:format>image/svg+xml</dc:format><dc:type
           rdf:resource="http://purl.org/dc/dcmitype/StillImage" /><dc:title /></cc:Work></rdf:RDF></metadata><defs
     id="defs6"><clipPath
       clipPathUnits="userSpaceOnUse"
       id="clipPath18"><path
         d="M 0,288.458 H 1138.254 V 0 H 0 Z"
         id="path16"
         inkscape:connector-curvature="0" /></clipPath></defs><sodipodi:namedview
     pagecolor="#ffffff"
     bordercolor="#666666"
     borderopacity="1"
     objecttolerance="10"
     gridtolerance="10"
     guidetolerance="10"
     inkscape:pageopacity="0"
     inkscape:pageshadow="2"
     inkscape:window-width="1920"
     inkscape:window-height="1026"
     id="namedview4"
     showgrid="false"
     inkscape:zoom="1"
     inkscape:cx="584.83337"
     inkscape:cy="192.30533"
     inkscape:window-x="1440"
     inkscape:window-y="0"
     inkscape:window-maximized="1"
     inkscape:current-layer="g10" /><g
     id="g10"
     inkscape:groupmode="layer"
     inkscape:label="ledgacy"
     transform="matrix(1.3333333,0,0,-1.3333333,0,384.61067)"><g
       id="g12"
       style="fill:#00ffff"><g
         id="g14"
         clip-path="url(#clipPath18)"
         style="fill:#00ffff"><g
           id="g20"
           transform="translate(299.0807,127.9766)"
           style="fill:#00ffff"><path
             d="m 0,0 c 0,-2.529 -2.019,-4.587 -4.5,-4.587 h -5.151 -15 -9.651 -20.349 c -2.481,0 -4.5,2.058 -4.5,4.587 v 21.404 c 0,2.531 2.019,4.587 4.5,4.587 h 20.349 9.651 15 5.151 c 2.481,0 4.5,-2.056 4.5,-4.587 z m -45.551,116.988 h -82.978 l 0.839,0.173 h -0.839 l 61.881,12.652 0.384,0.089 c 0.095,0.024 9.553,2.287 15.396,-2.131 2.792,-2.112 4.571,-5.672 5.317,-10.61 h -0.031 c 0.009,-0.059 0.022,-0.113 0.031,-0.173 M -4.5,41.281 H -9.651 V 97.37 c 0,10.817 -8.748,19.618 -19.5,19.618 h -1.287 c -1.037,10.113 -4.85,17.741 -11.381,22.71 -11.189,8.517 -25.973,5.271 -28,4.772 l -133.84,-27.533 c -10.282,-0.533 -18.492,-9.092 -18.492,-19.567 V 63.548 c 1.22,0.419 2.437,0.845 3.657,1.263 1.48,0.506 3.435,0.476 4.922,-0.034 2.142,-0.735 4.28,-1.482 6.421,-2.219 V 97.37 c 0,1.793 1.05,3.332 2.556,4.065 l 0.018,-0.089 2.685,0.551 h 172.741 c 2.482,0 4.5,-2.031 4.5,-4.527 V 41.281 h -9.651 -20.349 c -10.752,0 -19.5,-8.917 -19.5,-19.877 V 0 c 0,-10.959 8.748,-19.876 19.5,-19.876 h 20.349 9.651 v -55.963 c 0,-2.481 -2.018,-4.5 -4.5,-4.5 h -129.947 c -4.179,-5.436 -8.716,-10.432 -13.598,-15 h 143.545 c 10.752,0 19.5,8.748 19.5,19.5 v 55.963 H -4.5 C 6.252,-19.876 15,-10.959 15,0 v 21.404 c 0,10.96 -8.748,19.877 -19.5,19.877"
             style="fill:#00ffff;fill-opacity:1;fill-rule:nonzero;stroke:none"
             id="path22"
             inkscape:connector-curvature="0" /></g><g
           id="g24"
           transform="translate(31.4991,120.5899)"
           style="fill:#00ffff"><path
             d="m 0,0 c 0,-7.914 -0.008,-15.828 0.002,-23.742 0.009,-7.646 1.659,-14.945 5.161,-21.724 9.96,-19.281 25.709,-32.42 44.912,-41.772 0.896,-0.437 2.432,-0.199 3.411,0.269 13.776,6.581 25.598,15.71 35.281,27.536 8.732,10.662 14.248,22.586 14.214,36.675 -0.038,16.407 -0.043,32.815 0.037,49.222 0.009,1.944 -0.505,2.86 -2.424,3.51 C 84.918,35.277 69.295,40.737 53.616,46.031 52.289,46.479 50.54,46.441 49.203,45.989 33.526,40.693 17.903,35.238 2.227,29.938 0.399,29.32 -0.058,28.44 -0.04,26.638 0.046,17.759 -0.001,8.879 0,0 m 118.268,3.605 c 0,-10.323 0.178,-20.65 -0.045,-30.969 -0.278,-12.822 -4.952,-24.248 -12.08,-34.707 -13.087,-19.202 -30.816,-32.704 -52.063,-41.735 -1.412,-0.599 -3.496,-0.728 -4.868,-0.142 -23.321,9.946 -42.458,24.934 -55.587,46.948 -6.1,10.228 -9.202,21.36 -9.228,33.284 -0.046,20.462 0.023,40.924 -0.07,61.386 -0.01,2.039 0.694,2.841 2.5,3.459 20.845,7.137 41.659,14.368 62.517,21.47 1.32,0.449 3.064,0.423 4.39,-0.03 20.763,-7.081 41.481,-14.295 62.24,-21.389 1.972,-0.674 2.642,-1.6 2.622,-3.697 -0.107,-11.291 -0.051,-22.584 -0.051,-33.877 -0.092,0 -0.185,0 -0.277,-10e-4"
             style="fill:#00ffff;fill-opacity:1;fill-rule:nonzero;stroke:none"
             id="path26"
             inkscape:connector-curvature="0" /></g><g
           id="g28"
           transform="translate(107.2247,130.544)"
           style="fill:#00ffff"><path
             d="m 0,0 c 4.092,-4.092 7.62,-7.62 10.924,-10.925 -14.654,-14.653 -29.412,-29.41 -43.975,-43.972 -8.642,8.5 -17.618,17.329 -26.508,26.073 3.527,3.47 7.127,7.012 10.492,10.322 5.011,-4.911 10.278,-10.072 15.452,-15.143 C -22.199,-22.219 -11.119,-11.129 0,0"
             style="fill:#00ffff;fill-opacity:1;fill-rule:nonzero;stroke:none"
             id="path30"
             inkscape:connector-curvature="0" /></g><g
           id="g32"
           transform="translate(374.1515,215.7236)"
           style="fill:#00ffff"><path
             d="m 0,0 h 21.107 v -111.103 c 0,-3.711 0.959,-6.62 2.878,-8.73 1.919,-2.111 4.606,-3.166 8.06,-3.166 1.406,0 3.037,0.255 4.893,0.768 1.853,0.509 3.613,1.085 5.277,1.726 l 3.07,-16.502 c -3.07,-1.409 -6.716,-2.527 -10.937,-3.358 -4.222,-0.83 -7.996,-1.247 -11.322,-1.247 -7.292,0 -12.952,1.981 -16.982,5.948 C 2.015,-131.7 0,-126.069 0,-118.777 Z"
             style="fill:#00ffff;fill-opacity:1;fill-rule:nonzero;stroke:none"
             id="path34"
             inkscape:connector-curvature="0" /></g><g
           id="g36"
           transform="translate(507.7032,133.4043)"
           style="fill:#00ffff"><path
             d="m 0,0 c -0.384,4.222 -1.439,8.122 -3.166,11.705 -1.727,3.58 -3.934,6.62 -6.62,9.114 -2.687,2.495 -5.822,4.444 -9.402,5.853 -3.583,1.406 -7.358,2.111 -11.322,2.111 -3.967,0 -7.709,-0.705 -11.225,-2.111 -3.52,-1.409 -6.62,-3.358 -9.307,-5.853 -2.687,-2.494 -4.863,-5.534 -6.523,-9.114 C -59.229,8.122 -60.252,4.222 -60.636,0 Z m -30.51,-59.677 c -7.804,0 -14.904,1.376 -21.3,4.126 -6.397,2.749 -11.866,6.491 -16.406,11.225 -4.542,4.731 -8.058,10.233 -10.554,16.503 -2.494,6.265 -3.741,12.919 -3.741,19.956 0,7.033 1.247,13.72 3.741,20.052 2.496,6.332 6.012,11.897 10.554,16.694 4.54,4.797 10.009,8.568 16.406,11.321 6.396,2.749 13.559,4.125 21.492,4.125 7.801,0 14.871,-1.409 21.204,-4.221 C -2.782,37.289 2.62,33.547 7.1,28.879 c 4.476,-4.671 7.897,-10.108 10.266,-16.311 2.365,-6.206 3.55,-12.697 3.55,-19.476 0,-1.535 -0.066,-2.974 -0.192,-4.318 -0.129,-1.342 -0.258,-2.464 -0.384,-3.357 h -80.401 c 0.384,-4.479 1.44,-8.51 3.166,-12.089 1.728,-3.583 3.964,-6.686 6.717,-9.307 2.749,-2.624 5.882,-4.638 9.403,-6.044 3.516,-1.41 7.195,-2.111 11.033,-2.111 2.812,0 5.595,0.351 8.346,1.056 2.75,0.701 5.278,1.726 7.581,3.069 2.302,1.344 4.346,2.975 6.139,4.894 1.79,1.919 3.197,4.029 4.222,6.332 l 18.037,-5.181 c -3.453,-7.55 -9.18,-13.72 -17.174,-18.516 -7.996,-4.798 -17.303,-7.197 -27.919,-7.197"
             style="fill:#00ffff;fill-opacity:1;fill-rule:nonzero;stroke:none"
             id="path38"
             inkscape:connector-curvature="0" /></g><g
           id="g40"
           transform="translate(591.9386,91.7647)"
           style="fill:#00ffff"><path
             d="m 0,0 c 3.07,0 6.141,0.51 9.211,1.535 3.07,1.023 5.883,2.429 8.443,4.222 2.557,1.79 4.764,3.9 6.62,6.332 1.853,2.429 3.166,5.052 3.934,7.867 v 26.289 c -1.151,3.196 -2.782,6.14 -4.894,8.826 -2.11,2.687 -4.508,4.99 -7.195,6.908 -2.686,1.919 -5.535,3.388 -8.539,4.414 -3.008,1.022 -6.045,1.535 -9.115,1.535 -4.221,0 -8.092,-0.959 -11.609,-2.878 -3.52,-1.919 -6.557,-4.48 -9.115,-7.676 -2.56,-3.199 -4.575,-6.845 -6.044,-10.937 -1.472,-4.096 -2.207,-8.317 -2.207,-12.665 0,-4.605 0.798,-8.956 2.399,-13.048 1.598,-4.096 3.804,-7.675 6.62,-10.745 2.812,-3.071 6.045,-5.502 9.69,-7.292 C -8.154,0.894 -4.221,0 0,0 m -5.181,-18.037 c -6.782,0 -13.048,1.376 -18.804,4.126 -5.757,2.749 -10.746,6.491 -14.967,11.224 -4.222,4.732 -7.517,10.267 -9.883,16.599 -2.368,6.332 -3.55,13.145 -3.55,20.436 0,7.034 1.118,13.654 3.359,19.86 2.236,6.203 5.373,11.672 9.402,16.406 4.029,4.732 8.761,8.473 14.199,11.226 5.437,2.749 11.418,4.125 17.942,4.125 8.059,0 15.159,-1.951 21.299,-5.853 6.141,-3.903 10.938,-8.859 14.392,-14.871 v 58.718 H 49.315 V 8.827 c 0,-2.431 0.414,-4.158 1.248,-5.181 0.83,-1.025 2.332,-1.601 4.508,-1.727 v -18.037 c -2.176,-0.384 -3.933,-0.639 -5.276,-0.768 -1.344,-0.126 -2.465,-0.191 -3.358,-0.191 -4.221,0 -7.675,1.085 -10.362,3.262 -2.686,2.173 -4.159,4.989 -4.414,8.443 l -0.384,7.483 c -3.711,-6.269 -8.763,-11.195 -15.158,-14.775 -6.398,-3.58 -13.498,-5.373 -21.3,-5.373"
             style="fill:#00ffff;fill-opacity:1;fill-rule:nonzero;stroke:none"
             id="path42"
             inkscape:connector-curvature="0" /></g><g
           id="g44"
           transform="translate(714.7443,91.7647)"
           style="fill:#00ffff"><path
             d="m 0,0 c 3.196,0 6.267,0.543 9.21,1.631 2.941,1.086 5.661,2.557 8.155,4.414 2.495,1.852 4.636,3.964 6.429,6.332 1.79,2.365 3.07,4.894 3.838,7.579 v 26.289 c -1.28,3.196 -2.945,6.108 -4.989,8.731 -2.048,2.62 -4.384,4.893 -7.004,6.812 -2.623,1.918 -5.407,3.421 -8.347,4.509 -2.944,1.085 -5.886,1.631 -8.827,1.631 -4.606,0 -8.731,-0.992 -12.377,-2.974 -3.646,-1.985 -6.749,-4.605 -9.307,-7.868 -2.56,-3.262 -4.542,-6.941 -5.948,-11.033 -1.409,-4.096 -2.11,-8.317 -2.11,-12.664 0,-4.606 0.797,-8.923 2.398,-12.952 1.598,-4.031 3.805,-7.55 6.62,-10.554 2.813,-3.008 6.108,-5.406 9.882,-7.196 C -8.605,0.894 -4.479,0 0,0 m -6.908,-17.077 c -6.782,0 -12.986,1.373 -18.613,4.125 -5.63,2.749 -10.458,6.491 -14.488,11.225 -4.029,4.732 -7.165,10.17 -9.402,16.311 -2.239,6.14 -3.358,12.599 -3.358,19.38 0,7.163 1.152,13.912 3.455,20.244 2.301,6.332 5.498,11.831 9.593,16.502 4.093,4.669 8.986,8.377 14.68,11.13 5.69,2.749 11.992,4.125 18.9,4.125 8.06,0 15.126,-1.918 21.204,-5.756 6.075,-3.838 11.096,-8.827 15.063,-14.968 V 84.238 H 48.739 V -13.24 c 0,-7.291 -1.343,-13.749 -4.03,-19.38 -2.687,-5.628 -6.428,-10.393 -11.225,-14.296 -4.797,-3.9 -10.458,-6.875 -16.982,-8.923 -6.524,-2.045 -13.561,-3.07 -21.107,-3.07 -11.129,0 -20.374,1.889 -27.728,5.661 -7.357,3.774 -13.528,9.052 -18.517,15.83 l 11.897,11.13 c 3.838,-5.373 8.794,-9.466 14.871,-12.281 6.074,-2.812 12.568,-4.221 19.477,-4.221 4.347,0 8.472,0.575 12.376,1.727 3.901,1.151 7.322,2.944 10.266,5.373 2.942,2.431 5.277,5.502 7.004,9.21 1.727,3.711 2.591,8.126 2.591,13.24 V 2.111 C 24.049,-4.029 19.122,-8.764 12.856,-12.089 6.587,-15.417 0,-17.077 -6.908,-17.077"
             style="fill:#00ffff;fill-opacity:1;fill-rule:nonzero;stroke:none"
             id="path46"
             inkscape:connector-curvature="0" /></g><g
           id="g48"
           transform="translate(821.2404,89.2705)"
           style="fill:#00ffff"><path
             d="m 0,0 c 5.115,0 9.945,0.927 14.488,2.782 4.539,1.853 8.089,4.444 10.65,7.772 2.686,2.302 4.029,4.731 4.029,7.292 v 13.24 c -3.583,1.405 -7.388,2.494 -11.417,3.262 -4.029,0.767 -7.963,1.151 -11.801,1.151 -7.55,0 -13.72,-1.631 -18.517,-4.894 -4.797,-3.261 -7.196,-7.579 -7.196,-12.952 0,-4.989 1.853,-9.18 5.565,-12.568 C -10.49,1.694 -5.756,0 0,0 m -5.756,-15.543 c -4.863,0 -9.373,0.801 -13.528,2.398 -4.158,1.599 -7.741,3.805 -10.745,6.621 -3.008,2.812 -5.373,6.14 -7.101,9.978 -1.726,3.838 -2.59,7.993 -2.59,12.473 0,4.73 1.023,9.018 3.071,12.856 2.044,3.837 4.956,7.162 8.73,9.978 3.772,2.812 8.251,4.989 13.432,6.524 5.181,1.535 10.905,2.303 17.174,2.303 4.731,0 9.402,-0.417 14.007,-1.247 4.606,-0.834 8.761,-1.952 12.473,-3.359 v 6.909 c 0,7.417 -2.11,13.207 -6.332,17.365 -4.222,4.155 -10.299,6.236 -18.23,6.236 -5.372,0 -10.649,-0.992 -15.83,-2.973 -5.181,-1.986 -10.524,-4.832 -16.022,-8.54 l -6.524,13.432 c 12.918,8.698 26.351,13.048 40.295,13.048 13.817,0 24.562,-3.52 32.238,-10.554 7.675,-7.036 11.512,-17.143 11.512,-30.317 V 11.321 c 0,-4.479 1.854,-6.782 5.566,-6.908 v -18.037 c -2.048,-0.384 -3.809,-0.639 -5.277,-0.768 -1.472,-0.126 -2.912,-0.191 -4.318,-0.191 -4.096,0 -7.262,1.021 -9.498,3.069 -2.24,2.045 -3.616,4.669 -4.126,7.868 L 32.046,2.687 C 27.566,-3.199 22.034,-7.709 15.447,-10.842 8.857,-13.975 1.79,-15.543 -5.756,-15.543"
             style="fill:#00ffff;fill-opacity:1;fill-rule:nonzero;stroke:none"
             id="path50"
             inkscape:connector-curvature="0" /></g><g
           id="g52"
           transform="translate(890.5109,125.9209)"
           style="fill:#00ffff"><path
             d="m 0,0 c 0,7.033 1.214,13.687 3.646,19.956 2.428,6.267 5.916,11.768 10.458,16.502 4.539,4.731 10.007,8.473 16.406,11.226 6.395,2.749 13.557,4.125 21.491,4.125 10.361,0 19.284,-2.273 26.768,-6.812 7.484,-4.542 13.079,-10.587 16.79,-18.133 L 75.027,20.34 c -2.431,4.222 -5.693,7.514 -9.786,9.882 -4.095,2.366 -8.635,3.549 -13.624,3.549 -4.221,0 -8.155,-0.833 -11.801,-2.494 -3.646,-1.664 -6.812,-4 -9.499,-7.004 C 27.631,21.267 25.521,17.716 23.985,13.624 22.45,9.528 21.683,4.989 21.683,0 c 0,-4.863 0.797,-9.373 2.398,-13.528 1.599,-4.159 3.773,-7.772 6.524,-10.842 2.749,-3.07 5.949,-5.469 9.595,-7.195 3.646,-1.728 7.514,-2.591 11.609,-2.591 2.557,0 5.115,0.35 7.675,1.055 2.558,0.702 4.894,1.695 7.004,2.975 2.111,1.277 3.964,2.749 5.565,4.413 1.598,1.661 2.782,3.454 3.55,5.373 l 20.723,-6.14 c -3.327,-7.55 -8.892,-13.72 -16.693,-18.517 -7.805,-4.798 -17.016,-7.196 -27.632,-7.196 -7.805,0 -14.904,1.409 -21.3,4.221 -6.397,2.813 -11.866,6.62 -16.406,11.417 C 9.753,-31.758 6.236,-26.226 3.741,-19.956 1.247,-13.69 0,-7.037 0,0"
             style="fill:#00ffff;fill-opacity:1;fill-rule:nonzero;stroke:none"
             id="path54"
             inkscape:connector-curvature="0" /></g><g
           id="g56"
           transform="translate(1006.4103,52.0449)"
           style="fill:#00ffff"><path
             d="m 0,0 c 1.919,-0.384 3.805,-0.702 5.661,-0.96 1.853,-0.255 3.358,-0.384 4.509,-0.384 1.661,0 3.101,0.354 4.317,1.056 1.215,0.704 2.462,1.952 3.742,3.741 1.278,1.793 2.591,4.318 3.934,7.58 1.343,3.262 2.908,7.453 4.701,12.569 L -14.392,123.958 H 7.292 L 38.378,42.215 66.009,123.958 H 85.965 L 40.488,0.384 C 38.44,-5.373 34.891,-10.2 29.839,-14.104 c -5.056,-3.901 -11.547,-5.853 -19.477,-5.853 -1.535,0 -3.136,0.097 -4.797,0.288 -1.664,0.192 -3.52,0.608 -5.565,1.247 z"
             style="fill:#00ffff;fill-opacity:1;fill-rule:nonzero;stroke:none"
             id="path58"
             inkscape:connector-curvature="0" /></g></g></g></g></svg>